<?xml version="1.0" encoding="UTF-8" standalone="no"?>
<svg
   aria-hidden="true"
   class="svg-inline--fa fa-facebook-f fa-w-10 fa-2x"
   data-icon="facebook-f"
   data-prefix="fab"
   viewBox="0 0 287.67123 513.69862"
   version="1.1"
   id="svg4"
   sodipodi:docname="fb.svg"
   width="21"
   height="37.5"
   inkscape:version="1.2 (dc2aeda, 2022-05-15)"
   xmlns:inkscape="http://www.inkscape.org/namespaces/inkscape"
   xmlns:sodipodi="http://sodipodi.sourceforge.net/DTD/sodipodi-0.dtd"
   xmlns="http://www.w3.org/2000/svg"
   xmlns:svg="http://www.w3.org/2000/svg">
  <defs
     id="defs8" />
  <sodipodi:namedview
     id="namedview6"
     pagecolor="#ffffff"
     bordercolor="#000000"
     borderopacity="0.25"
     inkscape:showpageshadow="2"
     inkscape:pageopacity="0.0"
     inkscape:pagecheckerboard="0"
     inkscape:deskcolor="#d1d1d1"
     showgrid="false"
     inkscape:zoom="5.6568543"
     inkscape:cx="-44.547727"
     inkscape:cy="19.622213"
     inkscape:window-width="1390"
     inkscape:window-height="944"
     inkscape:window-x="1970"
     inkscape:window-y="25"
     inkscape:window-maximized="0"
     inkscape:current-layer="svg4" />
  <path
     fill="currentColor"
     d="m 256.25,288 14.22,-92.66 h -88.91 v -60.13 c 0,-25.35 12.42,-50.06 52.24,-50.06 h 40.42 V 6.26 C 274.22,6.26 237.54,0 202.47,0 129.25,0 81.39,44.38 81.39,124.72 v 70.62 H 0 V 288 H 81.39 V 512 H 181.56 V 288 Z"
     id="path2" />
  <path
     style="fill:#ffffff;stroke-width:1.13992"
     d="M 82.07426,399.54206 V 287.25992 H 41.03713 0 V 241.6631 196.06629 h 41.03713 41.03713 v -42.31573 c 0,-32.49374 0.41354,-45.10082 1.78166,-54.31459 7.831508,-52.742508 39.10417,-86.169238 89.98192,-96.179882 20.07303,-3.949544 68.34814,-2.3747044 96.60824,3.1515712 l 3.13478,0.613008 V 45.687384 84.354102 l -22.51342,0.0087 c -12.38238,0.0048 -25.84768,0.54032 -29.9229,1.1902 -14.69574,2.343528 -27.48894,10.522916 -33.37574,21.338908 -5.91357,10.8651 -6.52147,15.90594 -6.52147,54.07639 v 35.09803 h 44.22687 44.2269 l -6.90074,45.31183 -6.90072,45.31184 -37.32616,0.3006 -37.32615,0.3006 V 399.55774 511.82432 H 131.66079 82.07426 Z"
     id="path150" />
  <path
     style="fill:#ffffff;stroke-width:1.13992"
     d="m 211.75348,286.4537 c 1.418,-0.2726 3.46982,-0.2624 4.55968,0.024 1.0898,0.2854 -0.07,0.5084 -2.5781,0.4958 -2.50784,-0.0126 -3.39954,-0.246 -1.9816,-0.5188 z"
     id="path152" />
  <path
     style="fill:#ffffff;stroke-width:1.13992"
     d="m 229.97892,286.45544 c 1.4106,-0.2718 3.71898,-0.2718 5.12964,0 1.4106,0.2716 0.2564,0.494 -2.56482,0.494 -2.8213,0 -3.97548,-0.2224 -2.56482,-0.494 z"
     id="path154" />
  <path
     style="fill:#ffffff;stroke-width:0.078125"
     d="M 181.25,315.00912 V 287.362 l 2.91016,-0.048 c 1.60058,-0.026 5.70507,-0.066 9.12109,-0.09 3.41602,-0.024 10.37695,-0.076 15.46875,-0.118 5.0918,-0.042 14.03906,-0.112 19.88282,-0.154 15.14076,-0.112 27.2474,-0.2282 27.28292,-0.2636 0.032,-0.032 6.42802,-41.95932 6.42802,-42.13534 0,-0.062 0.106,-0.1 0.2818,-0.1 0.252,0 0.2778,0.0186 0.2422,0.176 -0.022,0.096 -1.528,9.8877 -3.34672,21.75782 l -3.3069,21.58204 h -37.36488 -37.36488 v 27.34374 c 0,24.25346 -0.0132,27.34374 -0.1172,27.34374 -0.104,0 -0.1172,-3.12398 -0.1172,-27.64712 z"
     id="path156" />
</svg>
