<svg xmlns="http://www.w3.org/2000/svg" width="50" height="50" fill="none"><circle cx="22" cy="22" r="22" fill="#FFF5F1"></circle><path fill-rule="evenodd" stroke="#FF6229" stroke-width="2" d="M47.5 15.5h-18v16l6.75-5.33H47.5V15.5zM29.5 46.75c0-.9-.4-1.76-1.15-2.33-1.12-.86-3.07-1.92-5.85-1.92s-4.73 1.06-5.85 1.92c-.74.57-1.15 1.43-1.15 2.33v1.75h14v-1.75zM22 38.5c1.93 0 3.5-1.57 3.5-3.5s-1.57-3.5-3.5-3.5-3.5 1.57-3.5 3.5 1.57 3.5 3.5 3.5zM48.5 46.75c0-.9-.4-1.76-1.15-2.33-1.12-.86-3.07-1.92-5.85-1.92s-4.73 1.06-5.85 1.92c-.74.57-1.15 1.43-1.15 2.33v1.75h14v-1.75zM42 38.5c1.93 0 3.5-1.57 3.5-3.5s-1.57-3.5-3.5-3.5-3.5 1.57-3.5 3.5 1.57 3.5 3.5 3.5z" clip-rule="evenodd" stroke-linecap="square"></path></svg>